<?xml version="1.0" encoding="UTF-8"?>
<!--Generator: Apple Native CoreSVG 149-->
<!DOCTYPE svg
PUBLIC "-//W3C//DTD SVG 1.1//EN"
       "http://www.w3.org/Graphics/SVG/1.1/DTD/svg11.dtd">
<svg version="1.1" xmlns="http://www.w3.org/2000/svg" xmlns:xlink="http://www.w3.org/1999/xlink" width="3300" height="2200">
 <!--glyph: "uni1007C7.medium", point size: 100.0, font version: "17.0d9e1", template writer version: "59"-->
 <g id="Notes">
  <rect height="2200" id="artboard" style="fill:white;opacity:1" width="3300" x="0" y="0"/>
  <line style="fill:none;stroke:black;opacity:1;stroke-width:0.5;" x1="263" x2="3036" y1="292" y2="292"/>
  <text style="stroke:none;fill:black;font-family:sans-serif;font-size:13;font-weight:bold;" transform="matrix(1 0 0 1 263 322)">Weight/Scale Variations</text>
  <text style="stroke:none;fill:black;font-family:sans-serif;font-size:13;text-anchor:middle;" transform="matrix(1 0 0 1 559.711 322)">Ultralight</text>
  <text style="stroke:none;fill:black;font-family:sans-serif;font-size:13;text-anchor:middle;" transform="matrix(1 0 0 1 856.422 322)">Thin</text>
  <text style="stroke:none;fill:black;font-family:sans-serif;font-size:13;text-anchor:middle;" transform="matrix(1 0 0 1 1153.13 322)">Light</text>
  <text style="stroke:none;fill:black;font-family:sans-serif;font-size:13;text-anchor:middle;" transform="matrix(1 0 0 1 1449.84 322)">Regular</text>
  <text style="stroke:none;fill:black;font-family:sans-serif;font-size:13;text-anchor:middle;" transform="matrix(1 0 0 1 1746.56 322)">Medium</text>
  <text style="stroke:none;fill:black;font-family:sans-serif;font-size:13;text-anchor:middle;" transform="matrix(1 0 0 1 2043.27 322)">Semibold</text>
  <text style="stroke:none;fill:black;font-family:sans-serif;font-size:13;text-anchor:middle;" transform="matrix(1 0 0 1 2339.98 322)">Bold</text>
  <text style="stroke:none;fill:black;font-family:sans-serif;font-size:13;text-anchor:middle;" transform="matrix(1 0 0 1 2636.69 322)">Heavy</text>
  <text style="stroke:none;fill:black;font-family:sans-serif;font-size:13;text-anchor:middle;" transform="matrix(1 0 0 1 2933.4 322)">Black</text>
  <line style="fill:none;stroke:black;opacity:1;stroke-width:0.5;" x1="263" x2="3036" y1="1903" y2="1903"/>
  <g transform="matrix(1 0 0 1 263 1933)">
   <path d="M9.24805 0.830078Q10.8691 0.830078 12.2949 0.214844Q13.7207-0.400391 14.8096-1.49414Q15.8984-2.58789 16.5186-4.01367Q17.1387-5.43945 17.1387-7.05078Q17.1387-8.66211 16.5186-10.0879Q15.8984-11.5137 14.8047-12.6074Q13.7109-13.7012 12.2852-14.3164Q10.8594-14.9316 9.23828-14.9316Q7.62695-14.9316 6.20117-14.3164Q4.77539-13.7012 3.69141-12.6074Q2.60742-11.5137 1.9873-10.0879Q1.36719-8.66211 1.36719-7.05078Q1.36719-5.43945 1.9873-4.01367Q2.60742-2.58789 3.69629-1.49414Q4.78516-0.400391 6.21094 0.214844Q7.63672 0.830078 9.24805 0.830078ZM9.24805-0.654297Q7.91992-0.654297 6.7627-1.14746Q5.60547-1.64062 4.73145-2.51953Q3.85742-3.39844 3.36426-4.56055Q2.87109-5.72266 2.87109-7.05078Q2.87109-8.37891 3.35938-9.54102Q3.84766-10.7031 4.72168-11.582Q5.5957-12.4609 6.75293-12.9541Q7.91016-13.4473 9.23828-13.4473Q10.5762-13.4473 11.7334-12.9541Q12.8906-12.4609 13.7695-11.582Q14.6484-10.7031 15.1465-9.54102Q15.6445-8.37891 15.6445-7.05078Q15.6445-5.72266 15.1514-4.56055Q14.6582-3.39844 13.7842-2.51953Q12.9102-1.64062 11.748-1.14746Q10.5859-0.654297 9.24805-0.654297ZM5.83984-7.04102Q5.83984-6.71875 6.04492-6.51855Q6.25-6.31836 6.5918-6.31836L8.50586-6.31836L8.50586-4.39453Q8.50586-4.0625 8.70605-3.85742Q8.90625-3.65234 9.22852-3.65234Q9.56055-3.65234 9.76562-3.85742Q9.9707-4.0625 9.9707-4.39453L9.9707-6.31836L11.8945-6.31836Q12.2266-6.31836 12.4316-6.51855Q12.6367-6.71875 12.6367-7.04102Q12.6367-7.37305 12.4316-7.57812Q12.2266-7.7832 11.8945-7.7832L9.9707-7.7832L9.9707-9.69727Q9.9707-10.0391 9.76562-10.2441Q9.56055-10.4492 9.22852-10.4492Q8.90625-10.4492 8.70605-10.2441Q8.50586-10.0391 8.50586-9.69727L8.50586-7.7832L6.5918-7.7832Q6.25-7.7832 6.04492-7.57812Q5.83984-7.37305 5.83984-7.04102Z"/>
  </g>
  <g transform="matrix(1 0 0 1 281.867 1933)">
   <path d="M11.709 2.91016Q13.75 2.91016 15.5518 2.12891Q17.3535 1.34766 18.7305-0.0292969Q20.1074-1.40625 20.8887-3.20801Q21.6699-5.00977 21.6699-7.05078Q21.6699-9.0918 20.8887-10.8936Q20.1074-12.6953 18.7305-14.0723Q17.3535-15.4492 15.5469-16.2305Q13.7402-17.0117 11.6992-17.0117Q9.6582-17.0117 7.85645-16.2305Q6.05469-15.4492 4.68262-14.0723Q3.31055-12.6953 2.5293-10.8936Q1.74805-9.0918 1.74805-7.05078Q1.74805-5.00977 2.5293-3.20801Q3.31055-1.40625 4.6875-0.0292969Q6.06445 1.34766 7.86621 2.12891Q9.66797 2.91016 11.709 2.91016ZM11.709 1.25Q9.98047 1.25 8.47656 0.605469Q6.97266-0.0390625 5.83496-1.17676Q4.69727-2.31445 4.05762-3.81836Q3.41797-5.32227 3.41797-7.05078Q3.41797-8.7793 4.05762-10.2832Q4.69727-11.7871 5.83008-12.9297Q6.96289-14.0723 8.4668-14.7119Q9.9707-15.3516 11.6992-15.3516Q13.4277-15.3516 14.9316-14.7119Q16.4355-14.0723 17.5781-12.9297Q18.7207-11.7871 19.3652-10.2832Q20.0098-8.7793 20.0098-7.05078Q20.0098-5.32227 19.3701-3.81836Q18.7305-2.31445 17.5928-1.17676Q16.4551-0.0390625 14.9463 0.605469Q13.4375 1.25 11.709 1.25ZM7.39258-7.04102Q7.39258-6.68945 7.62695-6.46484Q7.86133-6.24023 8.23242-6.24023L10.8789-6.24023L10.8789-3.57422Q10.8789-3.21289 11.1035-2.9834Q11.3281-2.75391 11.6797-2.75391Q12.0508-2.75391 12.2852-2.9834Q12.5195-3.21289 12.5195-3.57422L12.5195-6.24023L15.1758-6.24023Q15.5371-6.24023 15.7715-6.46484Q16.0059-6.68945 16.0059-7.04102Q16.0059-7.41211 15.7715-7.6416Q15.5371-7.87109 15.1758-7.87109L12.5195-7.87109L12.5195-10.5176Q12.5195-10.8984 12.2852-11.1279Q12.0508-11.3574 11.6797-11.3574Q11.3281-11.3574 11.1035-11.1279Q10.8789-10.8984 10.8789-10.5176L10.8789-7.87109L8.23242-7.87109Q7.85156-7.87109 7.62207-7.6416Q7.39258-7.41211 7.39258-7.04102Z"/>
  </g>
  <g transform="matrix(1 0 0 1 305.646 1933)">
   <path d="M14.9707 5.66406Q17.0605 5.66406 18.96 5.01465Q20.8594 4.36523 22.4512 3.19336Q24.043 2.02148 25.2197 0.429688Q26.3965-1.16211 27.0459-3.06641Q27.6953-4.9707 27.6953-7.05078Q27.6953-9.14062 27.0459-11.04Q26.3965-12.9395 25.2197-14.5312Q24.043-16.123 22.4512-17.2998Q20.8594-18.4766 18.9551-19.126Q17.0508-19.7754 14.9609-19.7754Q12.8711-19.7754 10.9717-19.126Q9.07227-18.4766 7.48535-17.2998Q5.89844-16.123 4.72168-14.5312Q3.54492-12.9395 2.90039-11.04Q2.25586-9.14062 2.25586-7.05078Q2.25586-4.9707 2.90527-3.06641Q3.55469-1.16211 4.72656 0.429688Q5.89844 2.02148 7.49023 3.19336Q9.08203 4.36523 10.9814 5.01465Q12.8809 5.66406 14.9707 5.66406ZM14.9707 3.84766Q13.1641 3.84766 11.5283 3.2959Q9.89258 2.74414 8.53516 1.74805Q7.17773 0.751953 6.17676-0.610352Q5.17578-1.97266 4.62891-3.6084Q4.08203-5.24414 4.08203-7.05078Q4.08203-8.86719 4.62891-10.5029Q5.17578-12.1387 6.17188-13.501Q7.16797-14.8633 8.52539-15.8594Q9.88281-16.8555 11.5186-17.4023Q13.1543-17.9492 14.9609-17.9492Q16.7773-17.9492 18.4131-17.4023Q20.0488-16.8555 21.4111-15.8594Q22.7734-14.8633 23.7695-13.501Q24.7656-12.1387 25.3174-10.5029Q25.8691-8.86719 25.8691-7.05078Q25.8789-5.24414 25.332-3.6084Q24.7852-1.97266 23.7842-0.610352Q22.7832 0.751953 21.4209 1.74805Q20.0586 2.74414 18.4229 3.2959Q16.7871 3.84766 14.9707 3.84766ZM9.45312-7.04102Q9.45312-6.66016 9.71191-6.41113Q9.9707-6.16211 10.3711-6.16211L14.0625-6.16211L14.0625-2.46094Q14.0625-2.06055 14.3115-1.80664Q14.5605-1.55273 14.9414-1.55273Q15.3516-1.55273 15.6055-1.80664Q15.8594-2.06055 15.8594-2.46094L15.8594-6.16211L19.5605-6.16211Q19.9609-6.16211 20.2148-6.41113Q20.4688-6.66016 20.4688-7.04102Q20.4688-7.45117 20.2148-7.70508Q19.9609-7.95898 19.5605-7.95898L15.8594-7.95898L15.8594-11.6504Q15.8594-12.0605 15.6055-12.3145Q15.3516-12.5684 14.9414-12.5684Q14.5605-12.5684 14.3115-12.3096Q14.0625-12.0508 14.0625-11.6504L14.0625-7.95898L10.3711-7.95898Q9.96094-7.95898 9.70703-7.70508Q9.45312-7.45117 9.45312-7.04102Z"/>
  </g>
  <text style="stroke:none;fill:black;font-family:sans-serif;font-size:13;font-weight:bold;" transform="matrix(1 0 0 1 263 1953)">Design Variations</text>
  <text style="stroke:none;fill:black;font-family:sans-serif;font-size:13;" transform="matrix(1 0 0 1 263 1971)">Symbols are supported in up to nine weights and three scales.</text>
  <text style="stroke:none;fill:black;font-family:sans-serif;font-size:13;" transform="matrix(1 0 0 1 263 1989)">For optimal layout with text and other symbols, vertically align</text>
  <text style="stroke:none;fill:black;font-family:sans-serif;font-size:13;" transform="matrix(1 0 0 1 263 2007)">symbols with the adjacent text.</text>
  <line style="fill:none;stroke:#00AEEF;stroke-width:0.5;opacity:1.0;" x1="776" x2="776" y1="1919" y2="1933"/>
  <g transform="matrix(1 0 0 1 776 1933)">
   <path d="M3.31055 0.15625Q3.70117 0.15625 3.91602-0.00976562Q4.13086-0.175781 4.26758-0.585938L5.52734-4.0332L11.2891-4.0332L12.5488-0.585938Q12.6855-0.175781 12.9004-0.00976562Q13.1152 0.15625 13.4961 0.15625Q13.8867 0.15625 14.1162-0.0585938Q14.3457-0.273438 14.3457-0.644531Q14.3457-0.869141 14.2383-1.17188L9.6582-13.3691Q9.48242-13.8184 9.17969-14.043Q8.87695-14.2676 8.4082-14.2676Q7.5-14.2676 7.17773-13.3789L2.59766-1.16211Q2.49023-0.859375 2.49023-0.634766Q2.49023-0.263672 2.70996-0.0537109Q2.92969 0.15625 3.31055 0.15625ZM6.00586-5.51758L8.37891-12.0898L8.42773-12.0898L10.8008-5.51758Z"/>
  </g>
  <line style="fill:none;stroke:#00AEEF;stroke-width:0.5;opacity:1.0;" x1="793.197" x2="793.197" y1="1919" y2="1933"/>
  <text style="stroke:none;fill:black;font-family:sans-serif;font-size:13;font-weight:bold;" transform="matrix(1 0 0 1 776 1953)">Margins</text>
  <text style="stroke:none;fill:black;font-family:sans-serif;font-size:13;" transform="matrix(1 0 0 1 776 1971)">Leading and trailing margins on the left and right side of each symbol</text>
  <text style="stroke:none;fill:black;font-family:sans-serif;font-size:13;" transform="matrix(1 0 0 1 776 1989)">can be adjusted by modifying the x-location of the margin guidelines.</text>
  <text style="stroke:none;fill:black;font-family:sans-serif;font-size:13;" transform="matrix(1 0 0 1 776 2007)">Modifications are automatically applied proportionally to all</text>
  <text style="stroke:none;fill:black;font-family:sans-serif;font-size:13;" transform="matrix(1 0 0 1 776 2025)">scales and weights.</text>
  <g transform="matrix(1 0 0 1 1289 1933)">
   <path d="M2.8418 1.86523L4.54102 3.57422Q5.18555 4.22852 5.90332 4.17969Q6.62109 4.13086 7.31445 3.35938L18.0078-8.42773L17.041-9.4043L6.42578 2.27539Q6.16211 2.57812 5.89355 2.61719Q5.625 2.65625 5.27344 2.30469L4.10156 1.14258Q3.75 0.791016 3.79395 0.522461Q3.83789 0.253906 4.14062-0.0195312L15.6152-10.8203L14.6387-11.7871L3.04688-0.898438Q2.30469-0.214844 2.25098 0.498047Q2.19727 1.21094 2.8418 1.86523ZM9.25781-16.3281Q8.94531-16.0254 8.90625-15.6348Q8.86719-15.2441 9.04297-14.9512Q9.21875-14.6777 9.55566-14.541Q9.89258-14.4043 10.3809-14.5215Q11.4746-14.7754 12.5977-14.7314Q13.7207-14.6875 14.7949-13.9844L14.209-12.5293Q13.9551-11.9043 14.0674-11.4404Q14.1797-10.9766 14.5801-10.5664L16.875-8.25195Q17.2363-7.88086 17.5781-7.82227Q17.9199-7.76367 18.3398-7.8418L19.4043-8.03711L20.0684-7.36328L20.0293-6.80664Q20-6.43555 20.1221-6.12305Q20.2441-5.81055 20.6055-5.44922L21.3672-4.70703Q21.7285-4.3457 22.1533-4.33105Q22.5781-4.31641 22.9297-4.66797L25.8398-7.58789Q26.1914-7.93945 26.1816-8.35449Q26.1719-8.76953 25.8105-9.13086L25.0391-9.89258Q24.6875-10.2539 24.3799-10.3857Q24.0723-10.5176 23.7109-10.4883L23.1348-10.4395L22.4902-11.0742L22.7344-12.1973Q22.832-12.6172 22.6953-12.9834Q22.5586-13.3496 22.1191-13.7891L19.9219-15.9766Q18.6719-17.2168 17.2607-17.8369Q15.8496-18.457 14.4189-18.4814Q12.9883-18.5059 11.665-17.959Q10.3418-17.4121 9.25781-16.3281ZM10.752-15.957Q11.6602-16.6211 12.7002-16.9043Q13.7402-17.1875 14.8047-17.085Q15.8691-16.9824 16.8701-16.5137Q17.8711-16.0449 18.7012-15.2051L21.1328-12.793Q21.3086-12.6172 21.3525-12.4512Q21.3965-12.2852 21.3379-12.0312L21.0156-10.5469L22.5195-9.0625L23.5059-9.12109Q23.6914-9.13086 23.7891-9.09668Q23.8867-9.0625 24.0332-8.91602L24.6094-8.33984L22.168-5.89844L21.5918-6.47461Q21.4453-6.62109 21.4062-6.71875Q21.3672-6.81641 21.377-7.01172L21.4453-7.98828L19.9512-9.47266L18.4277-9.21875Q18.1836-9.16992 18.042-9.2041Q17.9004-9.23828 17.7148-9.41406L15.7129-11.416Q15.5176-11.5918 15.4932-11.7529Q15.4688-11.9141 15.5859-12.1875L16.4648-14.2773Q15.293-15.3711 13.8281-15.791Q12.3633-16.2109 10.8398-15.7617Q10.7227-15.7324 10.6885-15.8057Q10.6543-15.8789 10.752-15.957Z"/>
  </g>
  <text style="stroke:none;fill:black;font-family:sans-serif;font-size:13;font-weight:bold;" transform="matrix(1 0 0 1 1289 1953)">Exporting</text>
  <text style="stroke:none;fill:black;font-family:sans-serif;font-size:13;" transform="matrix(1 0 0 1 1289 1971)">Symbols should be outlined when exporting to ensure the</text>
  <text style="stroke:none;fill:black;font-family:sans-serif;font-size:13;" transform="matrix(1 0 0 1 1289 1989)">design is preserved when submitting to Xcode.</text>
  <text id="template-version" style="stroke:none;fill:black;font-family:sans-serif;font-size:13;text-anchor:end;" transform="matrix(1 0 0 1 3036 1933)">Template v.2.0</text>
  <text style="stroke:none;fill:black;font-family:sans-serif;font-size:13;text-anchor:end;" transform="matrix(1 0 0 1 3036 1951)">Requires Xcode 13 or greater</text>
  <text id="descriptive-name" style="stroke:none;fill:black;font-family:sans-serif;font-size:13;text-anchor:end;" transform="matrix(1 0 0 1 3036 1969)">Generated from seal.fill</text>
  <text style="stroke:none;fill:black;font-family:sans-serif;font-size:13;text-anchor:end;" transform="matrix(1 0 0 1 3036 1987)">Typeset at 100 points</text>
  <text style="stroke:none;fill:black;font-family:sans-serif;font-size:13;" transform="matrix(1 0 0 1 263 726)">Small</text>
  <text style="stroke:none;fill:black;font-family:sans-serif;font-size:13;" transform="matrix(1 0 0 1 263 1156)">Medium</text>
  <text style="stroke:none;fill:black;font-family:sans-serif;font-size:13;" transform="matrix(1 0 0 1 263 1586)">Large</text>
 </g>
 <g id="Guides">
  <g id="H-reference" style="fill:#27AAE1;stroke:none;" transform="matrix(1 0 0 1 339 696)">
   <path d="M0.976562 0L3.66211 0L29.3457-67.1387L30.0293-67.1387L30.0293-70.459L28.125-70.459ZM11.6699-24.4629L46.9727-24.4629L46.2402-26.709L12.4512-26.709ZM55.127 0L57.7637 0L30.6152-70.459L29.4434-70.459L29.4434-67.1387Z"/>
  </g>
  <line id="Baseline-S" style="fill:none;stroke:#27AAE1;opacity:1;stroke-width:0.5;" x1="263" x2="3036" y1="696" y2="696"/>
  <line id="Capline-S" style="fill:none;stroke:#27AAE1;opacity:1;stroke-width:0.5;" x1="263" x2="3036" y1="625.541" y2="625.541"/>
  <g id="H-reference" style="fill:#27AAE1;stroke:none;" transform="matrix(1 0 0 1 339 1126)">
   <path d="M0.976562 0L3.66211 0L29.3457-67.1387L30.0293-67.1387L30.0293-70.459L28.125-70.459ZM11.6699-24.4629L46.9727-24.4629L46.2402-26.709L12.4512-26.709ZM55.127 0L57.7637 0L30.6152-70.459L29.4434-70.459L29.4434-67.1387Z"/>
  </g>
  <line id="Baseline-M" style="fill:none;stroke:#27AAE1;opacity:1;stroke-width:0.5;" x1="263" x2="3036" y1="1126" y2="1126"/>
  <line id="Capline-M" style="fill:none;stroke:#27AAE1;opacity:1;stroke-width:0.5;" x1="263" x2="3036" y1="1055.54" y2="1055.54"/>
  <g id="H-reference" style="fill:#27AAE1;stroke:none;" transform="matrix(1 0 0 1 339 1556)">
   <path d="M0.976562 0L3.66211 0L29.3457-67.1387L30.0293-67.1387L30.0293-70.459L28.125-70.459ZM11.6699-24.4629L46.9727-24.4629L46.2402-26.709L12.4512-26.709ZM55.127 0L57.7637 0L30.6152-70.459L29.4434-70.459L29.4434-67.1387Z"/>
  </g>
  <line id="Baseline-L" style="fill:none;stroke:#27AAE1;opacity:1;stroke-width:0.5;" x1="263" x2="3036" y1="1556" y2="1556"/>
  <line id="Capline-L" style="fill:none;stroke:#27AAE1;opacity:1;stroke-width:0.5;" x1="263" x2="3036" y1="1485.54" y2="1485.54"/>
  <line id="left-margin" style="fill:none;stroke:#00AEEF;stroke-width:0.5;opacity:1.0;" x1="1385.64" x2="1385.64" y1="1030.79" y2="1150.12"/>
  <line id="right-margin" style="fill:none;stroke:#00AEEF;stroke-width:0.5;opacity:1.0;" x1="1514.05" x2="1514.05" y1="1030.79" y2="1150.12"/>
 </g>
 <g id="Symbols">
  <g id="Black-L" transform="matrix(1 0 0 1 2848.32 1556)">
   <path d="M47.3633 21.7285L60.2051 21.7285Q61.4746 21.7285 62.4023 22.6562L71.4355 31.6895Q78.3203 38.5742 85.1074 38.5498Q91.8945 38.5254 98.7305 31.6895L107.764 22.6562Q108.691 21.7285 110.01 21.7285L122.803 21.7285Q132.471 21.7285 137.28 16.9189Q142.09 12.1094 142.09 2.44141L142.09-10.3516Q142.09-11.6699 143.018-12.5977L152.051-21.6309Q158.936-28.4668 158.911-35.2539Q158.887-42.041 152.051-48.9258L143.018-57.959Q142.09-58.8867 142.09-60.1562L142.09-72.998Q142.09-82.666 137.28-87.4756Q132.471-92.2852 122.803-92.2852L110.01-92.2852Q108.691-92.2852 107.764-93.2129L98.7305-102.246Q91.8457-109.131 85.083-109.106Q78.3203-109.082 71.4355-102.148L62.4023-93.2129Q61.4746-92.2852 60.2051-92.2852L47.3633-92.2852Q37.6953-92.2852 32.8857-87.5244Q28.0762-82.7637 28.0762-72.998L28.0762-60.1562Q28.0762-58.8867 27.1484-57.959L18.1152-48.9258Q11.2793-42.041 11.2793-35.2539Q11.2793-28.4668 18.1152-21.6309L27.1484-12.5977Q28.0762-11.6699 28.0762-10.3516L28.0762 2.44141Q28.0762 12.1094 32.9102 16.9189Q37.7441 21.7285 47.3633 21.7285Z"/>
  </g>
  <g id="Heavy-L" transform="matrix(1 0 0 1 2552.31 1556)">
   <path d="M46.4844 20.9961L59.668 20.9961Q61.084 20.9961 62.1094 22.0215L71.4355 31.2988Q77.9785 37.8906 84.3994 37.8662Q90.8203 37.8418 97.3633 31.2988L106.641 22.0215Q107.666 20.9961 109.131 20.9961L122.266 20.9961Q131.543 20.9961 136.084 16.4551Q140.625 11.9141 140.625 2.63672L140.625-10.498Q140.625-11.9629 141.65-12.9883L150.928-22.3145Q157.52-28.8574 157.495-35.2539Q157.471-41.6504 150.928-48.2422L141.65-57.5684Q140.625-58.5938 140.625-60.0098L140.625-73.1934Q140.625-82.4219 136.084-86.9629Q131.543-91.5039 122.266-91.5039L109.131-91.5039Q107.666-91.5039 106.641-92.5781L97.3633-101.855Q90.7715-108.447 84.375-108.423Q77.9785-108.398 71.3867-101.758L62.1094-92.5781Q61.084-91.5039 59.668-91.5039L46.4844-91.5039Q37.207-91.5039 32.666-87.0117Q28.125-82.5195 28.125-73.1934L28.125-60.0098Q28.125-58.5938 27.0996-57.5684L17.8223-48.2422Q11.2793-41.6504 11.2793-35.2539Q11.2793-28.8574 17.8223-22.3145L27.0996-12.9883Q28.125-11.9629 28.125-10.498L28.125 2.63672Q28.125 11.8652 32.6904 16.4307Q37.2559 20.9961 46.4844 20.9961Z"/>
  </g>
  <g id="Bold-L" transform="matrix(1 0 0 1 2256.38 1556)">
   <path d="M45.5078 20.166L59.0332 20.166Q60.6445 20.166 61.8164 21.2891L71.3867 30.8105Q77.6367 37.1094 83.6182 37.085Q89.5996 37.0605 95.8008 30.8105L105.42 21.2891Q106.543 20.166 108.203 20.166L121.729 20.166Q130.518 20.166 134.766 15.918Q139.014 11.6699 139.014 2.83203L139.014-10.6934Q139.014-12.3047 140.137-13.4766L149.707-23.0469Q155.957-29.2969 155.933-35.2783Q155.908-41.2598 149.707-47.5098L140.137-57.0801Q139.014-58.252 139.014-59.8633L139.014-73.3887Q139.014-82.1777 134.766-86.4258Q130.518-90.6738 121.729-90.6738L108.203-90.6738Q106.543-90.6738 105.42-91.8457L95.8008-101.367Q89.5996-107.666 83.6182-107.642Q77.6367-107.617 71.3867-101.318L61.8164-91.8457Q60.6445-90.6738 59.0332-90.6738L45.5078-90.6738Q36.7188-90.6738 32.4707-86.4746Q28.2227-82.2754 28.2227-73.3887L28.2227-59.8633Q28.2227-58.252 27.0508-57.0801L17.5293-47.5098Q11.2793-41.2598 11.2793-35.2783Q11.2793-29.2969 17.5293-23.0469L27.0508-13.4766Q28.2227-12.3047 28.2227-10.6934L28.2227 2.83203Q28.2227 11.6211 32.4707 15.8936Q36.7188 20.166 45.5078 20.166Z"/>
  </g>
  <g id="Semibold-L" transform="matrix(1 0 0 1 1960.21 1556)">
   <path d="M44.7754 19.5801L58.5938 19.5801Q60.3516 19.5801 61.5723 20.8008L71.3867 30.4688Q77.3438 36.5234 83.0566 36.499Q88.7695 36.4746 94.7266 30.4688L104.541 20.8008Q105.762 19.5801 107.52 19.5801L121.289 19.5801Q129.785 19.5801 133.838 15.5273Q137.891 11.4746 137.891 2.97852L137.891-10.791Q137.891-12.5488 139.111-13.8184L148.828-23.584Q154.883-29.5898 154.858-35.2783Q154.834-40.9668 148.828-46.9727L139.111-56.7383Q137.891-58.0078 137.891-59.7168L137.891-73.5352Q137.891-81.9824 133.838-86.0352Q129.785-90.0879 121.289-90.0879L107.52-90.0879Q105.762-90.0879 104.541-91.3086L94.7266-101.025Q88.7695-107.08 83.0566-107.056Q77.3438-107.031 71.3379-101.025L61.5723-91.3086Q60.3516-90.0879 58.5938-90.0879L44.7754-90.0879Q36.3281-90.0879 32.2754-86.084Q28.2227-82.0801 28.2227-73.5352L28.2227-59.7168Q28.2227-58.0078 27.002-56.7383L17.2852-46.9727Q11.2793-40.9668 11.2793-35.2783Q11.2793-29.5898 17.2852-23.584L27.002-13.8184Q28.2227-12.5488 28.2227-10.791L28.2227 2.97852Q28.2227 11.4258 32.2754 15.5029Q36.3281 19.5801 44.7754 19.5801Z"/>
  </g>
  <g id="Medium-L" transform="matrix(1 0 0 1 1663.91 1556)">
   <path d="M44.2871 19.1406L58.3008 19.1406Q60.1074 19.1406 61.377 20.4102L71.3379 30.2246Q77.1484 36.1328 82.6416 36.1084Q88.1348 36.084 93.9453 30.2246L103.857 20.4102Q105.176 19.1406 106.982 19.1406L120.996 19.1406Q129.248 19.1406 133.154 15.2344Q137.061 11.3281 137.061 3.07617L137.061-10.8887Q137.061-12.6953 138.281-14.0625L148.145-23.9746Q154.053-29.7852 154.028-35.2783Q154.004-40.7715 148.145-46.582L138.281-56.4941Q137.061-57.8125 137.061-59.6191L137.061-73.6328Q137.061-81.8359 133.154-85.7422Q129.248-89.6484 120.996-89.6484L106.982-89.6484Q105.176-89.6484 103.857-90.918L93.9453-100.781Q88.1348-106.689 82.6416-106.665Q77.1484-106.641 71.3379-100.781L61.377-90.918Q60.1074-89.6484 58.3008-89.6484L44.2871-89.6484Q36.0352-89.6484 32.1533-85.791Q28.2715-81.9336 28.2715-73.6328L28.2715-59.6191Q28.2715-57.8125 27.002-56.4941L17.0898-46.582Q11.2793-40.7715 11.2793-35.2783Q11.2793-29.7852 17.0898-23.9746L27.002-14.0625Q28.2715-12.6953 28.2715-10.8887L28.2715 3.07617Q28.2715 11.3281 32.1777 15.2344Q36.084 19.1406 44.2871 19.1406Z"/>
  </g>
  <g id="Regular-L" transform="matrix(1 0 0 1 1367.74 1556)">
   <path d="M43.6035 18.5547L57.8613 18.5547Q59.8145 18.5547 61.1816 19.9219L71.3379 29.9316Q76.9043 35.5957 82.1045 35.5713Q87.3047 35.5469 92.8711 29.9316L103.027 19.9219Q104.395 18.5547 106.348 18.5547L120.605 18.5547Q128.516 18.5547 132.227 14.8682Q135.938 11.1816 135.938 3.22266L135.938-10.9863Q135.938-12.9395 137.256-14.3555L147.314-24.4629Q152.979-30.0781 152.954-35.2783Q152.93-40.4785 147.314-46.0449L137.256-56.2012Q135.938-57.5684 135.938-59.5215L135.938-73.7793Q135.938-81.6406 132.227-85.3516Q128.516-89.0625 120.605-89.0625L106.348-89.0625Q104.395-89.0625 103.027-90.4297L92.8711-100.488Q87.3047-106.152 82.1045-106.128Q76.9043-106.104 71.2891-100.488L61.1816-90.4297Q59.8145-89.0625 57.8613-89.0625L43.6035-89.0625Q35.6934-89.0625 32.0068-85.4004Q28.3203-81.7383 28.3203-73.7793L28.3203-59.5215Q28.3203-57.5684 26.9531-56.2012L16.8945-46.0449Q11.2793-40.4785 11.2793-35.2783Q11.2793-30.0781 16.8945-24.4629L26.9531-14.3555Q28.3203-12.9395 28.3203-10.9863L28.3203 3.22266Q28.3203 11.1328 32.0068 14.8438Q35.6934 18.5547 43.6035 18.5547Z"/>
  </g>
  <g id="Light-L" transform="matrix(1 0 0 1 1072.05 1556)">
   <path d="M42.1387 17.3828L57.1777 17.3828Q59.2773 17.3828 60.7422 18.8477L71.4355 29.4434Q76.5137 34.5703 81.1035 34.5703Q85.6934 34.5703 90.7227 29.4434L101.416 18.8477Q102.881 17.3828 104.98 17.3828L120.068 17.3828Q127.246 17.3828 130.518 14.1357Q133.789 10.8887 133.789 3.71094L133.789-11.3281Q133.789-13.3789 135.205-14.9414L145.801-25.6348Q150.928-30.6641 150.928-35.2539Q150.928-39.8438 145.801-44.873L135.205-55.6152Q133.789-57.1289 133.789-59.1797L133.789-74.2188Q133.789-81.3965 130.518-84.668Q127.246-87.9395 120.068-87.9395L104.98-87.9395Q102.881-87.9395 101.416-89.4043L90.7227-100Q85.6445-105.176 81.0791-105.151Q76.5137-105.127 71.3867-100L60.7422-89.4043Q59.2773-87.9395 57.1777-87.9395L42.1387-87.9395Q34.9609-87.9395 31.6895-84.6924Q28.418-81.4453 28.418-74.2188L28.418-59.1797Q28.418-57.1289 27.002-55.6152L16.3574-44.873Q11.2793-39.8438 11.2793-35.2539Q11.2793-30.6641 16.3574-25.6348L27.002-14.9414Q28.418-13.3789 28.418-11.3281L28.418 3.71094Q28.418 10.8887 31.6895 14.1357Q34.9609 17.3828 42.1387 17.3828Z"/>
  </g>
  <g id="Thin-L" transform="matrix(1 0 0 1 776.661 1556)">
   <path d="M40.1855 15.8691L56.2988 15.8691Q58.5938 15.8691 60.1562 17.4805L71.6309 28.8574Q75.9766 33.252 79.7363 33.2275Q83.4961 33.2031 87.8906 28.8574L99.3164 17.4805Q100.928 15.8691 103.174 15.8691L119.287 15.8691Q125.537 15.8691 128.223 13.1836Q130.908 10.498 130.908 4.29688L130.908-11.8164Q130.908-14.0137 132.471-15.6738L143.848-27.1484Q148.291-31.4941 148.267-35.2539Q148.242-39.0137 143.848-43.3594L132.471-54.8828Q130.908-56.4941 130.908-58.6914L130.908-74.8535Q130.908-81.0547 128.223-83.7402Q125.537-86.4258 119.287-86.4258L103.174-86.4258Q100.928-86.4258 99.3164-87.9883L87.8906-99.3652Q83.4961-103.809 79.7363-103.809Q75.9766-103.809 71.582-99.3652L60.1562-87.9883Q58.5938-86.4258 56.2988-86.4258L40.1855-86.4258Q33.9844-86.4258 31.2988-83.7402Q28.6133-81.0547 28.6133-74.8535L28.6133-58.6914Q28.6133-56.4941 27.002-54.8828L15.6738-43.3594Q11.2305-39.0137 11.2305-35.2539Q11.2305-31.4941 15.6738-27.1484L27.002-15.6738Q28.6133-14.0137 28.6133-11.8164L28.6133 4.29688Q28.6133 10.5469 31.2988 13.208Q33.9844 15.8691 40.1855 15.8691Z"/>
  </g>
  <g id="Ultralight-L" transform="matrix(1 0 0 1 480.658 1556)">
   <path d="M39.209 15.0879L55.8594 15.0879Q58.2031 15.0879 59.8633 16.748L71.6797 28.5156Q75.7324 32.5684 79.0771 32.5684Q82.4219 32.5684 86.4258 28.5156L98.2422 16.748Q99.9023 15.0879 102.246 15.0879L118.945 15.0879Q124.658 15.0879 127.051 12.6953Q129.443 10.3027 129.443 4.63867L129.443-12.0605Q129.443-14.3066 131.104-16.0645L142.822-27.9297Q146.875-31.8848 146.875-35.2539Q146.875-38.623 142.822-42.5781L131.104-54.4922Q129.443-56.2012 129.443-58.4961L129.443-75.1465Q129.443-80.8594 127.051-83.252Q124.658-85.6445 118.945-85.6445L102.246-85.6445Q99.9023-85.6445 98.2422-87.3047L86.4258-99.0234Q82.373-103.174 79.0283-103.174Q75.6836-103.174 71.6309-99.0234L59.8633-87.3047Q58.2031-85.6445 55.8594-85.6445L39.209-85.6445Q33.4473-85.6445 31.0547-83.252Q28.6621-80.8594 28.6621-75.1465L28.6621-58.4961Q28.6621-56.2012 27.0508-54.4922L15.2832-42.5781Q11.2305-38.623 11.2305-35.2539Q11.2305-31.8848 15.2832-27.9297L27.0508-16.0645Q28.6621-14.3066 28.6621-12.0605L28.6621 4.63867Q28.6621 10.3516 31.0547 12.7197Q33.4473 15.0879 39.209 15.0879Z"/>
  </g>
  <g id="Black-M" transform="matrix(1 0 0 1 2867.19 1126)">
   <path d="M36.9629 9.17969L46.875 9.17969Q47.8027 9.17969 48.4375 9.81445L55.4688 16.7969Q60.8398 22.2168 66.2109 22.2168Q71.582 22.2168 76.9531 16.7969L83.9844 9.81445Q84.6191 9.17969 85.5469 9.17969L95.459 9.17969Q103.076 9.17969 106.86 5.37109Q110.645 1.5625 110.645-6.05469L110.645-15.9668Q110.645-16.8457 111.328-17.5293L118.311-24.5117Q123.682-29.8828 123.682-35.2539Q123.682-40.625 118.311-46.0449L111.328-53.0273Q110.645-53.6621 110.645-54.5898L110.645-64.502Q110.645-72.1191 106.836-75.9033Q103.027-79.6875 95.459-79.6875L85.5469-79.6875Q84.6191-79.6875 83.9844-80.3711L76.9531-87.3535Q71.5332-92.7734 66.1865-92.7734Q60.8398-92.7734 55.4688-87.3047L48.4375-80.3711Q47.8027-79.6875 46.875-79.6875L36.9629-79.6875Q29.3457-79.6875 25.5615-75.9277Q21.7773-72.168 21.7773-64.502L21.7773-54.5898Q21.7773-53.6621 21.0938-53.0273L14.1113-46.0449Q8.74023-40.625 8.74023-35.2539Q8.74023-29.8828 14.1113-24.5117L21.0938-17.5293Q21.7773-16.8457 21.7773-15.9668L21.7773-6.05469Q21.7773 1.5625 25.5859 5.37109Q29.3945 9.17969 36.9629 9.17969Z"/>
  </g>
  <g id="Heavy-M" transform="matrix(1 0 0 1 2570.94 1126)">
   <path d="M36.4258 8.69141L46.4844 8.69141Q47.5586 8.69141 48.2422 9.42383L55.4199 16.5039Q60.5957 21.7285 65.7471 21.7285Q70.8984 21.7285 76.0742 16.5039L83.2031 9.42383Q83.9355 8.69141 85.0098 8.69141L95.0684 8.69141Q102.441 8.69141 106.055 5.05371Q109.668 1.41602 109.668-5.95703L109.668-16.0156Q109.668-17.041 110.449-17.8223L117.529-24.9023Q122.754-30.127 122.729-35.2539Q122.705-40.3809 117.529-45.6543L110.449-52.7344Q109.668-53.4668 109.668-54.4922L109.668-64.5996Q109.668-71.9238 106.03-75.5615Q102.393-79.1992 95.0684-79.1992L85.0098-79.1992Q83.9355-79.1992 83.2031-79.9805L76.0742-87.0605Q70.8496-92.2852 65.7227-92.2852Q60.5957-92.2852 55.4199-87.0117L48.2422-79.9805Q47.5586-79.1992 46.4844-79.1992L36.4258-79.1992Q29.0527-79.1992 25.415-75.5859Q21.7773-71.9727 21.7773-64.5996L21.7773-54.4922Q21.7773-53.4668 21.0449-52.7344L13.916-45.6543Q8.74023-40.3809 8.74023-35.2539Q8.74023-30.127 13.916-24.9023L21.0449-17.8223Q21.7773-17.041 21.7773-16.0156L21.7773-5.95703Q21.7773 1.36719 25.4395 5.0293Q29.1016 8.69141 36.4258 8.69141Z"/>
  </g>
  <g id="Bold-M" transform="matrix(1 0 0 1 2274.77 1126)">
   <path d="M35.791 8.1543L46.0449 8.1543Q47.2656 8.1543 48.0469 8.98438L55.3223 16.2109Q60.3516 21.2402 65.2344 21.2158Q70.1172 21.1914 75.0977 16.2109L82.373 8.98438Q83.2031 8.1543 84.375 8.1543L94.6289 8.1543Q101.709 8.1543 105.151 4.6875Q108.594 1.2207 108.594-5.9082L108.594-16.1133Q108.594-17.2852 109.473-18.1641L116.699-25.3906Q121.68-30.3711 121.68-35.2539Q121.68-40.1367 116.699-45.166L109.473-52.4414Q108.594-53.2715 108.594-54.4434L108.594-64.6973Q108.594-71.7285 105.151-75.1953Q101.709-78.6621 94.6289-78.6621L84.375-78.6621Q83.2031-78.6621 82.373-79.4922L75.0977-86.7188Q70.0684-91.7969 65.21-91.7725Q60.3516-91.748 55.3223-86.7188L48.0469-79.4922Q47.2656-78.6621 46.0449-78.6621L35.791-78.6621Q28.7109-78.6621 25.2686-75.2441Q21.8262-71.8262 21.8262-64.6973L21.8262-54.4434Q21.8262-53.2715 20.9961-52.4414L13.7695-45.166Q8.74023-40.1367 8.74023-35.2539Q8.74023-30.3711 13.7695-25.3906L20.9961-18.1641Q21.8262-17.2852 21.8262-16.1133L21.8262-5.9082Q21.8262 1.2207 25.293 4.6875Q28.7598 8.1543 35.791 8.1543Z"/>
  </g>
  <g id="Semibold-M" transform="matrix(1 0 0 1 1978.42 1126)">
   <path d="M35.3516 7.76367L45.752 7.76367Q47.0215 7.76367 47.9004 8.64258L55.2734 15.9668Q60.1562 20.8496 64.8438 20.8252Q69.5312 20.8008 74.3652 15.9668L81.7383 8.64258Q82.666 7.76367 83.9355 7.76367L94.2871 7.76367Q101.172 7.76367 104.517 4.41895Q107.861 1.07422 107.861-5.81055L107.861-16.1621Q107.861-17.4316 108.74-18.3594L116.064-25.7324Q120.947-30.5664 120.923-35.2539Q120.898-39.9414 116.064-44.8242L108.74-52.1973Q107.861-53.0762 107.861-54.3457L107.861-64.7461Q107.861-71.582 104.517-74.9268Q101.172-78.2715 94.2871-78.2715L83.9355-78.2715Q82.666-78.2715 81.7383-79.1504L74.3652-86.4746Q69.5312-91.4062 64.8438-91.3818Q60.1562-91.3574 55.2734-86.4746L47.9004-79.1504Q47.0215-78.2715 45.752-78.2715L35.3516-78.2715Q28.4668-78.2715 25.1465-74.9756Q21.8262-71.6797 21.8262-64.7461L21.8262-54.3457Q21.8262-53.0762 20.9473-52.1973L13.623-44.8242Q8.74023-39.9414 8.74023-35.2539Q8.74023-30.5664 13.623-25.7324L20.9473-18.3594Q21.8262-17.4316 21.8262-16.1621L21.8262-5.81055Q21.8262 1.07422 25.1709 4.41895Q28.5156 7.76367 35.3516 7.76367Z"/>
  </g>
  <g id="Medium-M" transform="matrix(1 0 0 1 1681.98 1126)">
   <path d="M35.0586 7.4707L45.5078 7.4707Q46.875 7.4707 47.8027 8.39844L55.2246 15.7715Q60.0098 20.5566 64.5752 20.5566Q69.1406 20.5566 73.877 15.7715L81.2988 8.39844Q82.2754 7.4707 83.6426 7.4707L94.043 7.4707Q100.781 7.4707 104.028 4.24805Q107.275 1.02539 107.275-5.76172L107.275-16.2109Q107.275-17.5781 108.252-18.5547L115.625-25.9766Q120.41-30.6641 120.386-35.2539Q120.361-39.8438 115.625-44.5801L108.252-52.002Q107.275-52.9785 107.275-54.2969L107.275-64.7949Q107.275-71.4844 104.053-74.7559Q100.83-78.0273 94.043-78.0273L83.6426-78.0273Q82.2754-78.0273 81.2988-78.9062L73.877-86.3281Q69.1406-91.1133 64.5752-91.1133Q60.0098-91.1133 55.2246-86.2793L47.8027-78.9062Q46.875-78.0273 45.5078-78.0273L35.0586-78.0273Q28.3203-78.0273 25.0732-74.8047Q21.8262-71.582 21.8262-64.7949L21.8262-54.2969Q21.8262-52.9785 20.8984-52.002L13.5254-44.5801Q8.74023-39.8438 8.74023-35.2539Q8.74023-30.6641 13.5254-25.9766L20.8984-18.5547Q21.8262-17.5781 21.8262-16.2109L21.8262-5.76172Q21.8262 0.976562 25.0732 4.22363Q28.3203 7.4707 35.0586 7.4707Z"/>
  </g>
  <g id="Regular-M" transform="matrix(1 0 0 1 1385.64 1126)">
   <path d="M34.6191 7.08008L45.2148 7.08008Q46.6797 7.08008 47.6562 8.10547L55.1758 15.5762Q59.8145 20.2148 64.209 20.1904Q68.6035 20.166 73.1934 15.5762L80.7129 8.10547Q81.7383 7.08008 83.2031 7.08008L93.75 7.08008Q100.293 7.08008 103.418 3.97949Q106.543 0.878906 106.543-5.71289L106.543-16.2598Q106.543-17.7246 107.568-18.75L115.039-26.2695Q119.678-30.8594 119.653-35.2539Q119.629-39.6484 115.039-44.2871L107.568-51.8066Q106.543-52.832 106.543-54.248L106.543-64.8438Q106.543-71.3379 103.442-74.4873Q100.342-77.6367 93.75-77.6367L83.2031-77.6367Q81.7383-77.6367 80.7129-78.6133L73.1934-86.084Q68.6035-90.7715 64.209-90.7471Q59.8145-90.7227 55.1758-86.084L47.6562-78.6133Q46.6797-77.6367 45.2148-77.6367L34.6191-77.6367Q28.0762-77.6367 24.9512-74.5361Q21.8262-71.4355 21.8262-64.8438L21.8262-54.248Q21.8262-52.832 20.8496-51.8066L13.3789-44.2871Q8.74023-39.6484 8.74023-35.2539Q8.74023-30.8594 13.3789-26.2695L20.8496-18.75Q21.8262-17.7246 21.8262-16.2598L21.8262-5.71289Q21.8262 0.830078 24.9512 3.95508Q28.0762 7.08008 34.6191 7.08008Z"/>
  </g>
  <g id="Light-M" transform="matrix(1 0 0 1 1089.85 1126)">
   <path d="M33.3008 6.05469L44.6289 6.05469Q46.1914 6.05469 47.2656 7.12891L55.2734 15.1367Q59.4727 19.2871 63.3057 19.2871Q67.1387 19.2871 71.2402 15.1367L79.2969 7.12891Q80.3711 6.05469 81.9824 6.05469L93.2617 6.05469Q99.1699 6.05469 101.88 3.34473Q104.59 0.634766 104.59-5.27344L104.59-16.6016Q104.59-18.1152 105.713-19.2383L113.672-27.2949Q117.871-31.3965 117.847-35.2539Q117.822-39.1113 113.672-43.2617L105.713-51.2695Q104.59-52.4414 104.59-53.9062L104.59-65.2344Q104.59-71.0938 101.88-73.8525Q99.1699-76.6113 93.2617-76.6113L81.9824-76.6113Q80.3711-76.6113 79.2969-77.6855L71.2402-85.6445Q67.1387-89.8926 63.3057-89.8682Q59.4727-89.8438 55.2734-85.6445L47.2656-77.6855Q46.1914-76.6113 44.6289-76.6113L33.3008-76.6113Q27.3926-76.6113 24.6582-73.9014Q21.9238-71.1914 21.9238-65.2344L21.9238-53.9062Q21.9238-52.4414 20.8984-51.2695L12.8906-43.2617Q8.74023-39.1113 8.74023-35.2539Q8.74023-31.3965 12.8906-27.2949L20.8984-19.2383Q21.9238-18.1152 21.9238-16.6016L21.9238-5.27344Q21.9238 0.585938 24.6582 3.32031Q27.3926 6.05469 33.3008 6.05469Z"/>
  </g>
  <g id="Thin-M" transform="matrix(1 0 0 1 794.337 1126)">
   <path d="M31.543 4.6875L43.7988 4.6875Q45.5566 4.6875 46.7285 5.9082L55.4688 14.5508Q58.9844 18.1152 62.085 18.1152Q65.1855 18.1152 68.7012 14.5508L77.3926 5.9082Q78.6133 4.6875 80.3711 4.6875L92.627 4.6875Q97.6562 4.6875 99.8535 2.49023Q102.051 0.292969 102.051-4.73633L102.051-16.9922Q102.051-18.6523 103.223-19.9219L111.914-28.6621Q115.479-32.1777 115.454-35.2539Q115.43-38.3301 111.914-41.8945L103.223-50.6348Q102.051-51.9043 102.051-53.5156L102.051-65.7715Q102.051-70.8008 99.8535-73.0225Q97.6562-75.2441 92.627-75.2441L80.3711-75.2441Q78.6133-75.2441 77.3926-76.416L68.7012-85.0586Q65.1367-88.7207 62.0605-88.6963Q58.9844-88.6719 55.4199-85.0586L46.7285-76.416Q45.5566-75.2441 43.7988-75.2441L31.543-75.2441Q26.5137-75.2441 24.3164-73.0469Q22.1191-70.8496 22.1191-65.7715L22.1191-53.5156Q22.1191-51.9043 20.8984-50.6348L12.2559-41.8945Q8.69141-38.3301 8.69141-35.2539Q8.69141-32.1777 12.2559-28.6621L20.8984-19.9219Q22.1191-18.6523 22.1191-16.9922L22.1191-4.73633Q22.1191 0.292969 24.3164 2.49023Q26.5137 4.6875 31.543 4.6875Z"/>
  </g>
  <g id="Ultralight-M" transform="matrix(1 0 0 1 498.261 1126)">
   <path d="M30.6641 4.00391L43.4082 4.00391Q45.2148 4.00391 46.4844 5.22461L55.5176 14.2578Q58.7402 17.4805 61.4746 17.4805Q64.209 17.4805 67.3828 14.2578L76.4648 5.22461Q77.6855 4.00391 79.541 4.00391L92.2852 4.00391Q96.875 4.00391 98.8037 2.0752Q100.732 0.146484 100.732-4.44336L100.732-17.2363Q100.732-18.9453 102.002-20.2637L110.986-29.3457Q114.209-32.5195 114.209-35.2539Q114.209-37.9883 110.986-41.2109L102.002-50.2441Q100.732-51.6113 100.732-53.2715L100.732-66.0645Q100.732-70.6543 98.7793-72.6074Q96.8262-74.5605 92.2852-74.5605L79.541-74.5605Q77.6855-74.5605 76.4648-75.7812L67.3828-84.7656Q64.1602-88.0859 61.4502-88.0859Q58.7402-88.0859 55.5176-84.7656L46.4844-75.7812Q45.2148-74.5605 43.4082-74.5605L30.6641-74.5605Q26.0742-74.5605 24.1211-72.6074Q22.168-70.6543 22.168-66.0645L22.168-53.2715Q22.168-51.6113 20.9473-50.2441L11.9141-41.2109Q8.69141-37.9883 8.69141-35.2539Q8.69141-32.5195 11.9141-29.3457L20.9473-20.2637Q22.168-18.9453 22.168-17.2363L22.168-4.44336Q22.168 0.146484 24.1211 2.0752Q26.0742 4.00391 30.6641 4.00391Z"/>
  </g>
  <g id="Black-S" transform="matrix(1 0 0 1 2881.45 696)">
   <path d="M29.0527-0.341797L36.8164-0.341797Q37.5-0.341797 37.9883 0.146484L43.457 5.61523Q47.7051 9.86328 51.9531 9.86328Q56.2012 9.86328 60.4492 5.61523L65.918 0.146484Q66.4062-0.341797 67.0898-0.341797L74.8535-0.341797Q80.8594-0.341797 83.8623-3.36914Q86.8652-6.39648 86.8652-12.3535L86.8652-20.1172Q86.8652-20.8008 87.3535-21.2891L92.8223-26.7578Q97.0703-31.0059 97.0703-35.2539Q97.0703-39.502 92.8223-43.75L87.3535-49.2188Q86.8652-49.707 86.8652-50.3906L86.8652-58.1543Q86.8652-64.1602 83.8379-67.1631Q80.8105-70.166 74.8535-70.166L67.0898-70.166Q66.4062-70.166 65.918-70.6543L60.4492-76.123Q56.1523-80.4199 51.9287-80.4199Q47.7051-80.4199 43.457-76.0742L37.9883-70.6543Q37.5-70.166 36.8164-70.166L29.0527-70.166Q23.0469-70.166 20.0439-67.1875Q17.041-64.209 17.041-58.1543L17.041-50.3906Q17.041-49.707 16.5527-49.2188L11.084-43.75Q6.83594-39.502 6.83594-35.2539Q6.83594-31.0059 11.084-26.7578L16.5527-21.2891Q17.041-20.8008 17.041-20.1172L17.041-12.3535Q17.041-6.34766 20.0684-3.34473Q23.0957-0.341797 29.0527-0.341797Z"/>
  </g>
  <g id="Heavy-S" transform="matrix(1 0 0 1 2585.03 696)">
   <path d="M28.7598-0.634766L36.5723-0.634766Q37.3047-0.634766 37.8906-0.0976562L43.4082 5.41992Q47.5586 9.57031 51.6846 9.57031Q55.8105 9.57031 59.9609 5.41992L65.4297-0.0976562Q66.0156-0.634766 66.7969-0.634766L74.5605-0.634766Q80.4688-0.634766 83.374-3.56445Q86.2793-6.49414 86.2793-12.3535L86.2793-20.1172Q86.2793-20.8984 86.8164-21.4844L92.334-26.9531Q96.4844-31.1523 96.4844-35.2539Q96.4844-39.3555 92.334-43.5547L86.8164-49.0234Q86.2793-49.6094 86.2793-50.3906L86.2793-58.1543Q86.2793-64.0625 83.3496-66.9678Q80.4199-69.873 74.5605-69.873L66.7969-69.873Q66.0156-69.873 65.4297-70.4102L59.9609-75.9277Q55.7617-80.127 51.6602-80.127Q47.5586-80.127 43.4082-75.8789L37.8906-70.4102Q37.3047-69.873 36.5723-69.873L28.7598-69.873Q22.8516-69.873 19.9463-66.9922Q17.041-64.1113 17.041-58.1543L17.041-50.3906Q17.041-49.6094 16.5039-49.0234L10.9863-43.5547Q6.83594-39.3555 6.83594-35.2539Q6.83594-31.1523 10.9863-26.9531L16.5039-21.4844Q17.041-20.8984 17.041-20.1172L17.041-12.3535Q17.041-6.44531 19.9707-3.54004Q22.9004-0.634766 28.7598-0.634766Z"/>
  </g>
  <g id="Bold-S" transform="matrix(1 0 0 1 2288.64 696)">
   <path d="M28.418-0.976562L36.2793-0.976562Q37.1582-0.976562 37.7441-0.341797L43.3105 5.22461Q47.3633 9.27734 51.3428 9.25293Q55.3223 9.22852 59.375 5.22461L64.9414-0.341797Q65.5273-0.976562 66.4551-0.976562L74.2676-0.976562Q79.9805-0.976562 82.8125-3.80859Q85.6445-6.64062 85.6445-12.3535L85.6445-20.166Q85.6445-21.0449 86.2793-21.6797L91.7969-27.2461Q95.8496-31.2988 95.8496-35.2783Q95.8496-39.2578 91.7969-43.3105L86.2793-48.8281Q85.6445-49.4629 85.6445-50.3418L85.6445-58.2031Q85.6445-63.916 82.8125-66.748Q79.9805-69.5801 74.2676-69.5801L66.4551-69.5801Q65.5273-69.5801 64.9414-70.166L59.375-75.7324Q55.3223-79.7852 51.3428-79.7852Q47.3633-79.7852 43.3105-75.6836L37.7441-70.166Q37.1582-69.5801 36.2793-69.5801L28.418-69.5801Q22.7051-69.5801 19.873-66.7725Q17.041-63.9648 17.041-58.2031L17.041-50.3418Q17.041-49.4629 16.4551-48.8281L10.8887-43.3105Q6.83594-39.2578 6.83594-35.2783Q6.83594-31.2988 10.8887-27.2461L16.4551-21.6797Q17.041-21.0449 17.041-20.166L17.041-12.3535Q17.041-6.5918 19.873-3.78418Q22.7051-0.976562 28.418-0.976562Z"/>
  </g>
  <g id="Semibold-S" transform="matrix(1 0 0 1 1992.14 696)">
   <path d="M28.1738-1.17188L36.0352-1.17188Q37.0117-1.17188 37.6465-0.537109L43.2617 5.0293Q47.2168 9.0332 51.0986 9.00879Q54.9805 8.98438 58.9844 5.0293L64.5508-0.537109Q65.1855-1.17188 66.2109-1.17188L74.0723-1.17188Q79.6387-1.17188 82.4219-3.93066Q85.2051-6.68945 85.2051-12.3047L85.2051-20.166Q85.2051-21.1426 85.8398-21.8262L91.4062-27.3926Q95.4102-31.3965 95.3857-35.2539Q95.3613-39.1113 91.4062-43.1152L85.8398-48.6816Q85.2051-49.3652 85.2051-50.3418L85.2051-58.2031Q85.2051-63.8184 82.4463-66.5771Q79.6875-69.3359 74.0723-69.3359L66.2109-69.3359Q65.1855-69.3359 64.5508-69.9707L58.9844-75.5371Q54.9805-79.541 51.0986-79.541Q47.2168-79.541 43.2617-75.5371L37.6465-69.9707Q37.0117-69.3359 36.0352-69.3359L28.1738-69.3359Q22.5586-69.3359 19.7998-66.6016Q17.041-63.8672 17.041-58.2031L17.041-50.3418Q17.041-49.3652 16.4062-48.6816L10.8398-43.1152Q6.83594-39.1113 6.83594-35.2539Q6.83594-31.3965 10.8398-27.3926L16.4062-21.8262Q17.041-21.1426 17.041-20.166L17.041-12.3047Q17.041-6.68945 19.7998-3.93066Q22.5586-1.17188 28.1738-1.17188Z"/>
  </g>
  <g id="Medium-S" transform="matrix(1 0 0 1 1695.6 696)">
   <path d="M27.9785-1.36719L35.8887-1.36719Q36.9141-1.36719 37.5977-0.634766L43.2129 4.93164Q47.168 8.83789 50.9521 8.83789Q54.7363 8.83789 58.6914 4.93164L64.2578-0.634766Q64.9414-1.36719 66.0156-1.36719L73.877-1.36719Q79.3945-1.36719 82.1289-4.05273Q84.8633-6.73828 84.8633-12.3047L84.8633-20.2148Q84.8633-21.1914 85.5469-21.9238L91.1133-27.5391Q95.0684-31.4453 95.0439-35.2539Q95.0195-39.0625 91.1133-42.9688L85.5469-48.584Q84.8633-49.3164 84.8633-50.293L84.8633-58.2031Q84.8633-63.7695 82.1533-66.4551Q79.4434-69.1406 73.877-69.1406L66.0156-69.1406Q64.9414-69.1406 64.2578-69.873L58.6914-75.4395Q54.7363-79.3945 50.9521-79.3701Q47.168-79.3457 43.2129-75.4395L37.5977-69.873Q36.9141-69.1406 35.8887-69.1406L27.9785-69.1406Q22.4609-69.1406 19.751-66.4795Q17.041-63.8184 17.041-58.2031L17.041-50.293Q17.041-49.3164 16.3574-48.584L10.7422-42.9688Q6.83594-39.0625 6.83594-35.2539Q6.83594-31.4453 10.7422-27.5391L16.3574-21.9238Q17.041-21.1914 17.041-20.2148L17.041-12.3047Q17.041-6.73828 19.751-4.05273Q22.4609-1.36719 27.9785-1.36719Z"/>
  </g>
  <g id="Regular-S" transform="matrix(1 0 0 1 1399.11 696)">
   <path d="M27.7344-1.5625L35.6934-1.5625Q36.7676-1.5625 37.5-0.830078L43.1641 4.78516Q47.0215 8.64258 50.7324 8.61816Q54.4434 8.59375 58.3008 4.78516L63.916-0.830078Q64.6484-1.5625 65.7715-1.5625L73.6816-1.5625Q79.1016-1.5625 81.7627-4.19922Q84.4238-6.83594 84.4238-12.3047L84.4238-20.2148Q84.4238-21.2891 85.1562-22.0703L90.7227-27.6855Q94.6289-31.543 94.6045-35.2539Q94.5801-38.9648 90.7227-42.8223L85.1562-48.4375Q84.4238-49.2188 84.4238-50.293L84.4238-58.2031Q84.4238-63.6719 81.7871-66.3086Q79.1504-68.9453 73.6816-68.9453L65.7715-68.9453Q64.6484-68.9453 63.916-69.6777L58.3008-75.293Q54.4434-79.1504 50.7324-79.126Q47.0215-79.1016 43.1641-75.293L37.5-69.6777Q36.7676-68.9453 35.6934-68.9453L27.7344-68.9453Q22.3145-68.9453 19.6777-66.333Q17.041-63.7207 17.041-58.2031L17.041-50.293Q17.041-49.2188 16.3086-48.4375L10.6934-42.8223Q6.83594-38.9648 6.83594-35.2539Q6.83594-31.543 10.6934-27.6855L16.3086-22.0703Q17.041-21.2891 17.041-20.2148L17.041-12.3047Q17.041-6.83594 19.6777-4.19922Q22.3145-1.5625 27.7344-1.5625Z"/>
  </g>
  <g id="Light-S" transform="matrix(1 0 0 1 1103.21 696)">
   <path d="M26.5625-2.49023L35.1562-2.49023Q36.3281-2.49023 37.1582-1.66016L43.2617 4.39453Q46.6797 7.86133 49.9023 7.83691Q53.125 7.8125 56.5918 4.39453L62.6465-1.66016Q63.4766-2.49023 64.6973-2.49023L73.2422-2.49023Q78.0762-2.49023 80.3955-4.76074Q82.7148-7.03125 82.7148-11.9141L82.7148-20.5078Q82.7148-21.6309 83.4961-22.5098L89.5508-28.6133Q93.0176-32.0312 92.9932-35.2539Q92.9688-38.4766 89.5508-41.8945L83.4961-47.998Q82.7148-48.877 82.7148-50L82.7148-58.5938Q82.7148-63.4766 80.4199-65.7471Q78.125-68.0176 73.2422-68.0176L64.6973-68.0176Q63.4766-68.0176 62.6465-68.8477L56.5918-74.9023Q53.125-78.3691 49.9023-78.3447Q46.6797-78.3203 43.2617-74.9023L37.1582-68.8477Q36.3281-68.0176 35.1562-68.0176L26.5625-68.0176Q21.7285-68.0176 19.4336-65.7471Q17.1387-63.4766 17.1387-58.5938L17.1387-50Q17.1387-48.877 16.3574-47.998L10.2539-41.8945Q6.83594-38.4766 6.83594-35.2539Q6.83594-32.0312 10.2539-28.6133L16.3574-22.5098Q17.1387-21.6309 17.1387-20.5078L17.1387-11.9141Q17.1387-7.03125 19.4336-4.76074Q21.7285-2.49023 26.5625-2.49023Z"/>
  </g>
  <g id="Thin-S" transform="matrix(1 0 0 1 807.57 696)">
   <path d="M25.0488-3.66211L34.4727-3.66211Q35.791-3.66211 36.6699-2.7832L43.4082 3.85742Q46.2891 6.78711 48.8525 6.78711Q51.416 6.78711 54.2969 3.85742L60.9863-2.7832Q61.9141-3.66211 63.2324-3.66211L72.6562-3.66211Q76.7578-3.66211 78.5889-5.49316Q80.4199-7.32422 80.4199-11.4258L80.4199-20.8496Q80.4199-22.1191 81.3477-23.1445L87.9883-29.7852Q90.918-32.666 90.8936-35.2539Q90.8691-37.8418 87.9883-40.7227L81.3477-47.3633Q80.4199-48.3887 80.4199-49.6582L80.4199-59.082Q80.4199-63.1836 78.5889-65.0146Q76.7578-66.8457 72.6562-66.8457L63.2324-66.8457Q61.9141-66.8457 60.9863-67.7246L54.2969-74.3652Q51.3672-77.3438 48.8281-77.3193Q46.2891-77.2949 43.3594-74.3652L36.6699-67.7246Q35.791-66.8457 34.4727-66.8457L25.0488-66.8457Q20.8984-66.8457 19.0918-65.0146Q17.2852-63.1836 17.2852-59.082L17.2852-49.6582Q17.2852-48.3887 16.3574-47.3633L9.7168-40.7227Q6.78711-37.8418 6.78711-35.2539Q6.78711-32.666 9.7168-29.7852L16.3574-23.1445Q17.2852-22.1191 17.2852-20.8496L17.2852-11.4258Q17.2852-7.32422 19.0918-5.49316Q20.8984-3.66211 25.0488-3.66211Z"/>
  </g>
  <g id="Ultralight-S" transform="matrix(1 0 0 1 511.42 696)">
   <path d="M24.2188-4.29688L34.082-4.29688Q35.498-4.29688 36.4746-3.32031L43.5059 3.61328Q46.0449 6.25 48.291 6.25Q50.5371 6.25 53.125 3.61328L60.1562-3.32031Q61.084-4.29688 62.5-4.29688L72.3633-4.29688Q76.0742-4.29688 77.6611-5.88379Q79.248-7.4707 79.248-11.1816L79.248-21.0449Q79.248-22.3633 80.2246-23.4375L87.1582-30.4199Q89.7949-33.0078 89.7949-35.2539Q89.7949-37.5 87.1582-40.0879L80.2246-47.0703Q79.248-48.1445 79.248-49.4629L79.248-59.3262Q79.248-63.0371 77.6611-64.624Q76.0742-66.2109 72.3633-66.2109L62.5-66.2109Q61.084-66.2109 60.1562-67.1875L53.125-74.1211Q50.4883-76.8066 48.2666-76.8066Q46.0449-76.8066 43.457-74.1211L36.4746-67.1875Q35.498-66.2109 34.082-66.2109L24.2188-66.2109Q20.5078-66.2109 18.9453-64.624Q17.3828-63.0371 17.3828-59.3262L17.3828-49.4629Q17.3828-48.1445 16.4062-47.0703L9.42383-40.0879Q6.78711-37.5 6.78711-35.2539Q6.78711-33.0078 9.42383-30.4199L16.4062-23.4375Q17.3828-22.3633 17.3828-21.0449L17.3828-11.1816Q17.3828-7.4707 18.9453-5.88379Q20.5078-4.29688 24.2188-4.29688Z"/>
  </g>
 </g>
</svg>
